<?xml version="1.0" encoding="UTF-8"?>
<svg id="Layer_2" data-name="Layer 2" xmlns="http://www.w3.org/2000/svg" xmlns:xlink="http://www.w3.org/1999/xlink" viewBox="0 0 352 98">
  <defs>
    <style>
      .cls-1 {
        fill: none;
        stroke: rgba(185, 148, 34, .2);
        stroke-width: 3px;
      }

      .cls-2 {
        fill: url(#linear-gradient);
        fill-opacity: .3;
      }

      .cls-2, .cls-3 {
        stroke-width: 0px;
      }

      .cls-3 {
        fill: #292929;
      }
    </style>
    <linearGradient id="linear-gradient" x1="232" y1="343.03" x2="232" y2="245.03" gradientTransform="translate(-56 343.03) scale(1 -1)" gradientUnits="userSpaceOnUse">
      <stop offset=".34" stop-color="#fcfcfc"/>
      <stop offset=".8" stop-color="#fbcf9b"/>
    </linearGradient>
  </defs>
  <g id="Layer_1-2" data-name="Layer 1">
    <path class="cls-2" d="M49,0h254c27.06,0,49,21.94,49,49h0c0,27.06-21.94,49-49,49H49C21.94,98,0,76.06,0,49h0C0,21.94,21.94,0,49,0Z"/>
    <path class="cls-1" d="M49,1.5h254c26.23,0,47.5,21.27,47.5,47.5h0c0,26.23-21.27,47.5-47.5,47.5H49C22.77,96.5,1.5,75.23,1.5,49h0C1.5,22.77,22.77,1.5,49,1.5Z"/>
    <path class="cls-3" d="M101.4,43.19c-.12-.42-.29-.78-.5-1.1-.22-.32-.48-.6-.79-.82-.31-.23-.66-.4-1.06-.52-.39-.12-.83-.18-1.3-.18-.89,0-1.68.22-2.35.67-.67.44-1.19,1.09-1.57,1.93-.38.84-.56,1.87-.56,3.09s.18,2.25.55,3.1c.37.85.89,1.5,1.57,1.95.68.44,1.47.66,2.39.66.84,0,1.55-.15,2.14-.44.6-.3,1.05-.72,1.36-1.27.32-.54.48-1.19.48-1.93l.75.11h-4.5v-2.78h7.3v2.2c0,1.53-.32,2.85-.97,3.95-.65,1.1-1.54,1.94-2.68,2.54-1.14.59-2.44.89-3.9.89-1.64,0-3.07-.36-4.31-1.08-1.24-.73-2.21-1.76-2.9-3.09-.69-1.34-1.03-2.93-1.03-4.77,0-1.42.2-2.68.61-3.78.41-1.11.99-2.06,1.74-2.83.74-.77,1.61-1.36,2.6-1.76.99-.4,2.06-.61,3.21-.61.99,0,1.91.15,2.76.43.85.29,1.61.69,2.27,1.21.67.52,1.21,1.14,1.63,1.87.42.72.69,1.51.81,2.37h-3.75ZM113.98,55.26c-1.35,0-2.51-.27-3.48-.82-.97-.55-1.71-1.33-2.23-2.34-.52-1.01-.78-2.21-.78-3.59s.26-2.53.78-3.54,1.26-1.81,2.21-2.38c.95-.57,2.07-.85,3.36-.85.86,0,1.67.14,2.41.42.75.27,1.4.69,1.96,1.24.56.55,1,1.24,1.31,2.08.31.83.47,1.8.47,2.91v1h-11.05v-2.25h7.64c0-.52-.11-.99-.34-1.39-.23-.4-.54-.72-.95-.95-.4-.23-.86-.35-1.39-.35s-1.04.13-1.47.38c-.42.25-.75.59-.99,1.01-.24.42-.36.89-.37,1.41v2.14c0,.65.12,1.21.36,1.68.24.47.59.83,1.03,1.09.44.26.97.38,1.58.38.4,0,.77-.06,1.11-.17.34-.11.62-.28.86-.51.24-.23.42-.51.54-.84l3.36.22c-.17.81-.52,1.51-1.05,2.11-.52.6-1.2,1.06-2.03,1.4-.82.33-1.78.49-2.85.49ZM129.32,41.91v2.73h-7.88v-2.73h7.88ZM123.23,38.77h3.63v12.2c0,.33.05.6.15.78.1.18.24.31.43.38.19.07.4.11.65.11.17,0,.34-.01.51-.04.17-.03.3-.06.39-.08l.57,2.7c-.18.06-.44.12-.77.2-.33.08-.73.13-1.2.15-.88.03-1.64-.08-2.3-.35-.65-.27-1.16-.68-1.53-1.25-.36-.56-.54-1.27-.54-2.13v-12.68ZM151.91,37.54v17.46h-3.19l-7.59-10.99h-.13v10.99h-3.69v-17.46h3.24l7.53,10.98h.15v-10.98h3.67ZM160.86,55.26c-1.35,0-2.51-.27-3.48-.82-.97-.55-1.71-1.33-2.23-2.34-.52-1.01-.78-2.21-.78-3.59s.26-2.53.78-3.54,1.26-1.81,2.21-2.38c.95-.57,2.07-.85,3.36-.85.86,0,1.67.14,2.41.42.75.27,1.4.69,1.96,1.24.56.55,1,1.24,1.31,2.08.31.83.47,1.8.47,2.91v1h-11.05v-2.25h7.64c0-.52-.11-.99-.34-1.39-.23-.4-.54-.72-.95-.95-.4-.23-.86-.35-1.39-.35s-1.04.13-1.47.38c-.42.25-.75.59-.99,1.01-.24.42-.36.89-.37,1.41v2.14c0,.65.12,1.21.36,1.68.24.47.59.83,1.03,1.09.44.26.97.38,1.58.38.4,0,.77-.06,1.11-.17.34-.11.62-.28.86-.51.24-.23.42-.51.54-.84l3.36.22c-.17.81-.52,1.51-1.05,2.11-.52.6-1.2,1.06-2.03,1.4-.82.33-1.78.49-2.85.49ZM172.03,41.91l2.4,4.58,2.46-4.58h3.72l-3.79,6.55,3.9,6.54h-3.71l-2.58-4.53-2.54,4.53h-3.75l3.89-6.54-3.75-6.55h3.75ZM189.74,41.91v2.73h-7.88v-2.73h7.88ZM183.65,38.77h3.63v12.2c0,.33.05.6.15.78.1.18.24.31.43.38.19.07.4.11.65.11.17,0,.34-.01.51-.04.17-.03.3-.06.39-.08l.57,2.7c-.18.06-.44.12-.77.2-.33.08-.73.13-1.2.15-.88.03-1.64-.08-2.3-.35-.65-.27-1.16-.68-1.53-1.25-.36-.56-.54-1.27-.54-2.13v-12.68ZM207.2,42.57c-.07-.69-.36-1.22-.88-1.6-.52-.38-1.22-.57-2.1-.57-.6,0-1.11.08-1.53.26-.42.16-.73.39-.95.69-.22.3-.32.63-.32,1.01-.01.31.05.58.2.82.15.23.35.43.61.6.26.17.55.31.89.44.33.12.69.22,1.07.31l1.57.38c.76.17,1.46.4,2.1.68.64.28,1.19.63,1.65,1.05.47.41.83.9,1.08,1.47.26.56.4,1.21.4,1.93,0,1.07-.28,2-.82,2.78-.53.78-1.31,1.38-2.32,1.82-1.01.43-2.22.64-3.64.64s-2.64-.22-3.68-.65c-1.04-.43-1.85-1.07-2.44-1.92-.58-.85-.88-1.91-.91-3.16h3.57c.04.59.21,1.07.5,1.47.3.39.7.68,1.2.88.51.19,1.08.29,1.71.29s1.17-.09,1.63-.27c.47-.18.83-.43,1.08-.76.26-.32.38-.7.38-1.12,0-.39-.12-.72-.35-.99-.23-.27-.56-.49-1.01-.68-.44-.19-.97-.36-1.61-.51l-1.9-.48c-1.47-.36-2.63-.92-3.48-1.68-.85-.76-1.28-1.79-1.27-3.08,0-1.06.28-1.98.84-2.77.57-.79,1.36-1.41,2.36-1.85,1-.44,2.14-.67,3.41-.67s2.43.22,3.39.67c.97.44,1.73,1.06,2.27,1.85.54.79.82,1.71.84,2.74h-3.54ZM220.35,41.91v2.73h-7.88v-2.73h7.88ZM214.26,38.77h3.63v12.2c0,.33.05.6.15.78.1.18.24.31.43.38.19.07.4.11.65.11.17,0,.34-.01.51-.04.17-.03.3-.06.39-.08l.57,2.7c-.18.06-.44.12-.77.2-.33.08-.73.13-1.2.15-.88.03-1.64-.08-2.3-.35-.65-.27-1.16-.68-1.53-1.25-.36-.56-.54-1.27-.54-2.13v-12.68ZM228.54,55.26c-1.35,0-2.51-.27-3.48-.82-.97-.55-1.71-1.33-2.23-2.34-.52-1.01-.78-2.21-.78-3.59s.26-2.53.78-3.54c.52-1.02,1.26-1.81,2.21-2.38.95-.57,2.07-.85,3.36-.85.86,0,1.67.14,2.41.42.75.27,1.4.69,1.96,1.24.56.55,1,1.24,1.31,2.08.31.83.47,1.8.47,2.91v1h-11.05v-2.25h7.64c0-.52-.11-.99-.34-1.39-.23-.4-.54-.72-.95-.95-.4-.23-.86-.35-1.39-.35s-1.04.13-1.47.38c-.42.25-.75.59-.99,1.01-.24.42-.36.89-.37,1.41v2.14c0,.65.12,1.21.36,1.68.24.47.59.83,1.03,1.09.44.26.97.38,1.58.38.4,0,.77-.06,1.11-.17.34-.11.62-.28.86-.51.24-.23.42-.51.55-.84l3.36.22c-.17.81-.52,1.51-1.05,2.11-.52.6-1.2,1.06-2.03,1.4-.82.33-1.78.49-2.85.49ZM236.92,59.91v-18h3.58v2.2h.16c.16-.35.39-.71.69-1.07.31-.37.7-.68,1.19-.92.49-.25,1.11-.38,1.84-.38.95,0,1.84.25,2.64.75.81.49,1.45,1.24,1.93,2.24.48.99.73,2.24.73,3.74s-.24,2.69-.71,3.7c-.47,1-1.1,1.76-1.91,2.28-.8.51-1.7.77-2.69.77-.71,0-1.3-.12-1.8-.35-.49-.23-.89-.53-1.2-.88-.31-.36-.55-.72-.72-1.08h-.11v7.01h-3.63ZM240.47,48.46c0,.78.11,1.46.32,2.04.22.58.53,1.03.94,1.36.41.32.91.48,1.49.48s1.09-.16,1.5-.49c.41-.33.72-.78.93-1.36.22-.58.32-1.26.32-2.02s-.11-1.42-.32-2c-.21-.57-.52-1.02-.93-1.35-.41-.32-.91-.49-1.51-.49s-1.09.16-1.5.47c-.4.31-.71.75-.93,1.33-.22.57-.32,1.25-.32,2.03ZM263,45.64l-3.32.21c-.06-.29-.18-.54-.37-.77-.19-.23-.43-.42-.74-.55-.3-.14-.66-.21-1.08-.21-.56,0-1.04.12-1.42.36-.39.23-.58.55-.58.94,0,.31.12.58.38.79.25.21.68.39,1.29.52l2.37.48c1.27.26,2.22.68,2.85,1.26.62.58.94,1.34.94,2.28,0,.86-.25,1.61-.76,2.26-.5.65-1.19,1.15-2.06,1.52-.87.36-1.87.54-3.01.54-1.73,0-3.11-.36-4.14-1.08-1.02-.73-1.62-1.72-1.8-2.97l3.57-.19c.11.53.37.93.79,1.21.41.27.95.41,1.59.41s1.15-.12,1.53-.37c.39-.25.59-.57.6-.96,0-.33-.15-.6-.42-.81-.27-.22-.69-.38-1.26-.49l-2.27-.45c-1.28-.26-2.23-.7-2.86-1.33-.62-.63-.93-1.43-.93-2.41,0-.84.23-1.56.68-2.17.46-.61,1.11-1.08,1.93-1.41.84-.33,1.81-.49,2.93-.49,1.65,0,2.96.35,3.9,1.05.95.7,1.51,1.65,1.67,2.85Z"/>
  </g>
</svg>