<?xml version="1.0" encoding="UTF-8"?>
<svg id="Layer_2" data-name="Layer 2" xmlns="http://www.w3.org/2000/svg" viewBox="0 0 218 169">
  <defs>
    <style>
      .cls-1 {
        fill: #d7cabd;
      }

      .cls-1, .cls-2 {
        stroke-width: 0px;
      }

      .cls-2 {
        fill: #d9d9d9;
      }
    </style>
  </defs>
  <g id="Layer_1-2" data-name="Layer 1">
    <path class="cls-2" d="M185.76,109c5.1,0,9.27-4.14,8.93-9.23-1.74-25.53-10.66-49.59-25.31-67.84C152.96,11.48,130.71,0,107.5,0c-23.21,0-45.46,11.48-61.87,31.93-14.65,18.25-23.57,42.32-25.31,67.84-.35,5.09,3.82,9.23,8.92,9.23s10.82,5.08,11.26,0c1.68-19.41,7.01-46.86,18.19-60.8,12.94-16.12,30.5-25.18,48.81-25.18s35.86,9.06,48.81,25.18c11.19,13.93,18.51,41.39,20.19,60.8.44,5.08,4.16,0,9.26,0Z"/>
    <path class="cls-1" d="M185.76,109c5.1,0,9.27-4.14,8.93-9.23-1.74-25.53-10.66-49.59-25.31-67.84C152.96,11.48,130.71,0,107.5,0c-23.21,0-45.46,11.48-61.87,31.93-14.65,18.25-23.57,42.32-25.31,67.84-.35,5.09,3.82,9.23,8.92,9.23s10.82,5.08,11.26,0c1.68-19.41,7.01-46.86,18.19-60.8,12.94-16.12,30.5-25.18,48.81-25.18s35.86,9.06,48.81,25.18c11.19,13.93,18.51,41.39,20.19,60.8.44,5.08,4.16,0,9.26,0Z"/>
    <path class="cls-2" d="M10,115.5c0-10.22,8.28-18.5,18.5-18.5s18.5,8.28,18.5,18.5v35c0,10.22-8.28,18.5-18.5,18.5s-18.5-8.28-18.5-18.5v-35Z"/>
    <path class="cls-1" d="M10,115.5c0-10.22,8.28-18.5,18.5-18.5s18.5,8.28,18.5,18.5v35c0,10.22-8.28,18.5-18.5,18.5s-18.5-8.28-18.5-18.5v-35Z"/>
    <path class="cls-2" d="M0,123.29c0-5.8,4.7-10.5,10.5-10.5s10.5,4.7,10.5,10.5v21c0,5.8-4.7,10.5-10.5,10.5s-10.5-4.7-10.5-10.5v-21Z"/>
    <path class="cls-1" d="M0,123.29c0-5.8,4.7-10.5,10.5-10.5s10.5,4.7,10.5,10.5v21c0,5.8-4.7,10.5-10.5,10.5s-10.5-4.7-10.5-10.5v-21Z"/>
    <path class="cls-2" d="M208,115.5c0-10.22-8.28-18.5-18.5-18.5s-18.5,8.28-18.5,18.5v35c0,10.22,8.28,18.5,18.5,18.5s18.5-8.28,18.5-18.5v-35Z"/>
    <path class="cls-1" d="M208,115.5c0-10.22-8.28-18.5-18.5-18.5s-18.5,8.28-18.5,18.5v35c0,10.22,8.28,18.5,18.5,18.5s18.5-8.28,18.5-18.5v-35Z"/>
    <path class="cls-2" d="M218,123.29c0-5.8-4.7-10.5-10.5-10.5s-10.5,4.7-10.5,10.5v21c0,5.8,4.7,10.5,10.5,10.5s10.5-4.7,10.5-10.5v-21Z"/>
    <path class="cls-1" d="M218,123.29c0-5.8-4.7-10.5-10.5-10.5s-10.5,4.7-10.5,10.5v21c0,5.8,4.7,10.5,10.5,10.5s10.5-4.7,10.5-10.5v-21Z"/>
  </g>
</svg>