<?xml version="1.0" encoding="UTF-8"?>
<svg id="Layer_2" data-name="Layer 2" xmlns="http://www.w3.org/2000/svg" xmlns:xlink="http://www.w3.org/1999/xlink" viewBox="0 0 357 64">
  <defs>
    <style>
      .cls-1 {
        fill: #f3f3f3;
      }

      .cls-1, .cls-2, .cls-3 {
        stroke-width: 0px;
      }

      .cls-4 {
        fill: none;
        stroke: #fff;
      }

      .cls-2 {
        fill: url(#linear-gradient);
        fill-opacity: .2;
      }

      .cls-3 {
        fill: #4f4f4f;
      }
    </style>
    <linearGradient id="linear-gradient" x1="234.5" y1="-397.13" x2="234.5" y2="-461.13" gradientTransform="translate(-56 -397.13) scale(1 -1)" gradientUnits="userSpaceOnUse">
      <stop offset="0" stop-color="#f4e1d1"/>
      <stop offset=".89" stop-color="#ffca28"/>
    </linearGradient>
  </defs>
  <g id="Layer_1-2" data-name="Layer 1">
    <g>
      <rect class="cls-1" x=".5" y=".5" width="356" height="63" rx="14.5" ry="14.5"/>
      <rect class="cls-2" x=".5" y=".5" width="356" height="63" rx="14.5" ry="14.5"/>
      <rect class="cls-4" x=".5" y=".5" width="356" height="63" rx="14.5" ry="14.5"/>
      <path class="cls-3" d="M84.57,22.54h2.11v11.56c0,1.19-.28,2.26-.84,3.2-.56.93-1.34,1.67-2.36,2.21-1.02.53-2.21.8-3.58.8s-2.56-.27-3.58-.8c-1.02-.54-1.81-1.28-2.37-2.21-.56-.94-.84-2-.84-3.2v-11.56h2.11v11.39c0,.85.19,1.61.56,2.28.38.66.91,1.18,1.6,1.56.7.38,1.53.56,2.51.56s1.81-.19,2.51-.56c.7-.38,1.23-.9,1.6-1.56.38-.66.56-1.42.56-2.28v-11.39ZM100.45,26.91c-.1-.86-.52-1.53-1.24-2.01-.73-.48-1.62-.72-2.68-.72-.77,0-1.45.12-2.03.38-.57.25-1.02.59-1.35,1.03-.32.44-.48.94-.48,1.49,0,.46.11.87.33,1.2.23.33.52.61.87.83.35.22.72.39,1.11.54.39.14.74.25,1.06.33l1.77.48c.46.12.96.28,1.52.49.56.21,1.1.5,1.61.86.52.36.94.82,1.28,1.38.34.56.5,1.25.5,2.07,0,.94-.25,1.8-.74,2.56-.49.76-1.2,1.37-2.15,1.82-.94.45-2.08.67-3.42.67-1.25,0-2.33-.2-3.25-.61-.91-.4-1.62-.97-2.15-1.69-.52-.72-.81-1.56-.88-2.51h2.18c.06.66.28,1.21.66,1.64.39.43.89.74,1.48.96.6.2,1.25.31,1.94.31.81,0,1.53-.13,2.17-.39.64-.27,1.15-.64,1.53-1.11.38-.48.56-1.03.56-1.67,0-.58-.16-1.05-.49-1.42-.32-.36-.75-.66-1.28-.89-.53-.23-1.1-.43-1.71-.6l-2.15-.61c-1.36-.39-2.44-.95-3.24-1.68-.8-.73-1.19-1.68-1.19-2.86,0-.98.26-1.83.79-2.56.53-.73,1.25-1.3,2.15-1.71.9-.41,1.91-.61,3.03-.61s2.12.2,3,.61c.88.4,1.57.94,2.08,1.64.52.69.79,1.48.82,2.36h-2.05ZM112.96,40v-17.46h2.11v7.77h9.31v-7.77h2.11v17.46h-2.11v-7.81h-9.31v7.81h-2.11ZM130.45,40v-13.09h2.01v13.09h-2.01ZM131.47,24.73c-.39,0-.73-.13-1.01-.4-.28-.27-.42-.59-.42-.96s.14-.7.42-.96c.28-.27.62-.4,1.01-.4s.73.13,1.01.4c.28.27.43.59.43.96s-.14.7-.43.96c-.28.27-.61.4-1.01.4ZM145.42,29.84l-1.81.51c-.11-.3-.28-.59-.5-.88-.22-.29-.51-.53-.89-.71-.38-.19-.85-.28-1.44-.28-.8,0-1.47.19-2,.55-.53.36-.79.83-.79,1.39,0,.5.18.9.54,1.19.36.29.93.53,1.71.72l1.94.48c1.17.28,2.04.72,2.62,1.3.57.58.86,1.33.86,2.24,0,.75-.22,1.42-.65,2.01-.43.59-1.02,1.06-1.79,1.4-.77.34-1.66.51-2.68.51-1.34,0-2.44-.29-3.32-.87-.88-.58-1.43-1.43-1.66-2.54l1.91-.48c.18.71.53,1.23,1.03,1.59.51.35,1.18.53,2,.53.94,0,1.68-.2,2.23-.6.56-.4.83-.89.83-1.45,0-.46-.16-.84-.48-1.14-.32-.31-.81-.54-1.47-.7l-2.18-.51c-1.2-.28-2.08-.72-2.64-1.32-.56-.6-.83-1.35-.83-2.26,0-.74.21-1.39.62-1.96.42-.57.99-1.01,1.71-1.34.73-.32,1.55-.49,2.47-.49,1.29,0,2.31.28,3.05.85.74.57,1.27,1.32,1.59,2.25ZM154.38,26.91v1.71h-6.78v-1.71h6.78ZM149.57,23.77h2.01v12.48c0,.57.08.99.25,1.28.17.28.39.47.65.56.27.09.55.14.84.14.22,0,.4-.01.54-.03.14-.03.26-.05.34-.07l.41,1.81c-.14.05-.33.1-.57.15-.24.06-.55.08-.93.08-.57,0-1.12-.12-1.67-.37-.54-.24-.99-.62-1.35-1.12-.35-.5-.53-1.13-.53-1.89v-13.02ZM162.58,40.27c-1.18,0-2.22-.28-3.11-.84-.89-.56-1.58-1.35-2.08-2.36-.5-1.01-.74-2.19-.74-3.54s.25-2.55.74-3.57c.5-1.02,1.19-1.81,2.08-2.37.89-.56,1.93-.84,3.11-.84s2.22.28,3.1.84c.89.56,1.59,1.35,2.08,2.37.5,1.02.75,2.21.75,3.57s-.25,2.53-.75,3.54c-.49,1.01-1.19,1.8-2.08,2.36-.89.56-1.92.84-3.1.84ZM162.58,38.47c.9,0,1.64-.23,2.22-.69.58-.46,1.01-1.07,1.29-1.82.28-.75.42-1.56.42-2.44s-.14-1.69-.42-2.45c-.28-.76-.71-1.37-1.29-1.83-.58-.47-1.32-.7-2.22-.7s-1.64.23-2.22.7c-.58.47-1.01,1.08-1.29,1.83-.28.75-.42,1.57-.42,2.45s.14,1.69.42,2.44c.28.75.71,1.36,1.29,1.82.58.46,1.32.69,2.22.69ZM171.58,40v-13.09h1.94v1.98h.14c.24-.65.67-1.17,1.29-1.58.62-.4,1.33-.6,2.11-.6.15,0,.33,0,.55,0,.22,0,.39.01.5.03v2.04c-.07-.02-.22-.04-.47-.08-.24-.04-.49-.06-.76-.06-.64,0-1.2.13-1.7.4-.5.26-.89.62-1.18,1.09-.28.46-.43.99-.43,1.58v8.28h-2.01ZM182.21,44.91c-.34,0-.65-.03-.91-.08-.27-.05-.45-.1-.55-.15l.51-1.77c.49.12.92.17,1.3.14s.71-.2,1-.5c.29-.3.57-.78.81-1.44l.38-1.02-4.84-13.16h2.18l3.61,10.43h.14l3.61-10.43h2.18l-5.56,15c-.25.68-.56,1.24-.93,1.68-.37.45-.8.78-1.29,1-.48.22-1.03.32-1.64.32ZM200.99,40v-1.53l5.76-6.31c.68-.74,1.23-1.38,1.67-1.93.44-.55.76-1.07.97-1.55.22-.49.32-1,.32-1.53,0-.61-.15-1.15-.44-1.59-.29-.45-.69-.79-1.19-1.04-.5-.24-1.07-.37-1.7-.37-.67,0-1.26.14-1.76.42-.49.27-.88.66-1.15,1.15-.27.49-.4,1.07-.4,1.74h-2.01c0-1.02.24-1.92.71-2.69.47-.77,1.11-1.38,1.93-1.81.82-.43,1.74-.65,2.75-.65s1.93.22,2.72.65c.79.43,1.41,1.01,1.86,1.75.45.73.67,1.55.67,2.45,0,.64-.12,1.27-.35,1.88-.23.61-.62,1.29-1.19,2.04-.56.74-1.34,1.65-2.34,2.73l-3.92,4.19v.14h8.11v1.88h-11.01ZM221.21,40.24c-1.28,0-2.38-.35-3.28-1.05-.9-.7-1.59-1.72-2.07-3.06-.48-1.34-.72-2.96-.72-4.86s.24-3.5.72-4.83c.48-1.34,1.18-2.36,2.08-3.07.91-.71,2-1.07,3.27-1.07s2.36.36,3.26,1.07c.91.71,1.6,1.73,2.08,3.07.48,1.34.72,2.95.72,4.83s-.24,3.52-.72,4.86c-.48,1.34-1.17,2.35-2.07,3.06-.9.7-2,1.05-3.28,1.05ZM221.21,38.36c1.27,0,2.26-.61,2.97-1.84.7-1.23,1.06-2.98,1.06-5.25,0-1.51-.16-2.8-.49-3.86-.32-1.06-.78-1.87-1.38-2.43-.6-.56-1.32-.83-2.16-.83-1.26,0-2.25.62-2.96,1.87-.71,1.24-1.07,2.99-1.07,5.26,0,1.51.16,2.79.48,3.85.32,1.06.78,1.86,1.37,2.41.6.55,1.33.83,2.17.83ZM230.52,40v-1.53l5.76-6.31c.68-.74,1.23-1.38,1.67-1.93.44-.55.76-1.07.97-1.55.22-.49.32-1,.32-1.53,0-.61-.15-1.15-.44-1.59-.29-.45-.69-.79-1.19-1.04-.51-.24-1.07-.37-1.7-.37-.67,0-1.26.14-1.76.42-.49.27-.88.66-1.15,1.15-.27.49-.4,1.07-.4,1.74h-2.01c0-1.02.24-1.92.71-2.69.47-.77,1.11-1.38,1.93-1.81.82-.43,1.74-.65,2.75-.65s1.93.22,2.72.65c.79.43,1.41,1.01,1.86,1.75.45.73.67,1.55.67,2.45,0,.64-.12,1.27-.35,1.88-.23.61-.62,1.29-1.19,2.04-.56.74-1.34,1.65-2.34,2.73l-3.92,4.19v.14h8.11v1.88h-11.01Z"/>
    </g>
  </g>
</svg>