<?xml version="1.0" encoding="UTF-8"?>
<svg id="Layer_2" data-name="Layer 2" xmlns="http://www.w3.org/2000/svg" viewBox="0 0 45 56">
  <defs>
    <style>
      .cls-1 {
        fill: #25383c;
      }

      .cls-1, .cls-2, .cls-3 {
        stroke-width: 0px;
      }

      .cls-2 {
        fill: #27c87d;
      }

      .cls-3 {
        fill: #fffbf7;
      }
    </style>
  </defs>
  <g id="Layer_1-2" data-name="Layer 1">
    <g>
      <rect class="cls-2" x="1.96" y="26" width="43.04" height="28" rx="1" ry="1"/>
      <path class="cls-2" d="M7.58,15l4.4-8,7.34-4.5,12.23,1,5.87,9,.98,8.5.49,4h-4.89l-2.45-12.5-8.32-4.5-6.36,2-3.91,5.5-2.45,9.5h-3.42l-.49-5,.98-5Z"/>
      <path class="cls-1" d="M4.55,24.73c-2.58.44-4.55,2.99-4.55,6.06v19.07c0,3.38,2.4,6.14,5.35,6.14h34.31c2.95,0,5.35-2.76,5.35-6.14v-19.07c0-3.07-1.97-5.62-4.55-6.06v-4.09C40.45,9.26,32.4,0,22.5,0S4.55,9.26,4.55,20.64v4.09h0ZM7.18,20.64C7.18,10.93,14.05,3.02,22.5,3.02s15.32,7.91,15.32,17.62v4.01h-2.92v-4.01c0-7.86-5.56-14.26-12.4-14.26s-12.4,6.4-12.4,14.26v4.01h-2.92v-4.01ZM32.26,20.64v4.01H12.72v-4.01c0-6.19,4.38-11.23,9.77-11.23s9.77,5.04,9.77,11.23h0ZM39.65,27.68c1.49,0,2.71,1.39,2.71,3.11v19.07c0,1.72-1.22,3.11-2.71,3.11H5.35c-1.49,0-2.71-1.39-2.71-3.11v-19.07c0-1.72,1.22-3.11,2.71-3.11h34.31,0Z"/>
      <path class="cls-3" d="M16.27,41.43c1.17.78,1.96,1.84,2.42,3.25.15.47.46.72.96.77.12.01.24.02.35.02.93,0,1.7-.44,2.26-1.31.37-.56.73-1.17,1.08-1.82,1.61-2.99,3.15-5.03,4.98-6.61.31-.27.63-.52.95-.78l.43-.35c.1-.09.15-.23.1-.36-.04-.14-.16-.23-.3-.24-.25-.01-.48.03-.67.14l-.54.27c-.54.27-1.08.55-1.6.87-2.35,1.48-4.36,3.45-6.12,6l-.26-.42c-.29-.48-.57-.95-.89-1.41-.42-.63-1.1-.88-1.8-.68-.39.11-.96.34-1.47.73-.34.26-.52.6-.51.96.01.36.23.71.61.96Z"/>
    </g>
  </g>
</svg>