<?xml version="1.0" encoding="UTF-8"?>
<svg id="Layer_2" data-name="Layer 2" xmlns="http://www.w3.org/2000/svg" xmlns:xlink="http://www.w3.org/1999/xlink" viewBox="0 0 335 254.15">
  <defs>
    <style>
      .cls-1 {
        fill: #bdbdbd;
      }

      .cls-1, .cls-2, .cls-3, .cls-4 {
        stroke-width: 0px;
      }

      .cls-5 {
        stroke: url(#linear-gradient);
      }

      .cls-5, .cls-6, .cls-7 {
        stroke-linecap: round;
        stroke-width: 5px;
      }

      .cls-5, .cls-6, .cls-7, .cls-8 {
        fill: none;
      }

      .cls-6 {
        stroke: url(#linear-gradient-2);
      }

      .cls-7 {
        stroke: url(#linear-gradient-3);
      }

      .cls-3 {
        fill: #d9d9d9;
      }

      .cls-4 {
        fill: #e45434;
      }

      .cls-8 {
        stroke: #d9d9d9;
        stroke-width: 13px;
      }
    </style>
    <linearGradient id="linear-gradient" x1="237.1" y1="64.03" x2="237.1" y2="16.03" gradientTransform="translate(-56 143.03) scale(1 -1)" gradientUnits="userSpaceOnUse">
      <stop offset="0" stop-color="#b3b3b3"/>
      <stop offset="1" stop-color="#919191"/>
    </linearGradient>
    <linearGradient id="linear-gradient-2" x1="245.51" y1="70.03" x2="245.51" y2="9.03" xlink:href="#linear-gradient"/>
    <linearGradient id="linear-gradient-3" x1="254.51" y1="75.03" x2="254.51" y2="5.03" xlink:href="#linear-gradient"/>
  </defs>
  <g id="Layer_1-2" data-name="Layer 1">
    <path class="cls-3" d="M10,213h315c5.52,0,10,4.48,10,10h0c0,5.52-4.48,10-10,10H10c-5.52,0-10-4.48-10-10h0c0-5.52,4.48-10,10-10Z"/>
    <path class="cls-4" d="M11,222.5c0-1.93,1.57-3.5,3.5-3.5h171c1.93,0,3.5,1.57,3.5,3.5s-1.57,3.5-3.5,3.5H14.5c-1.93,0-3.5-1.57-3.5-3.5Z"/>
    <path class="cls-2" d="M154.45,254v-1.66l3.88-3.6c.33-.32.61-.61.83-.86.23-.26.4-.51.52-.75.12-.25.18-.52.18-.8,0-.32-.07-.6-.22-.83-.15-.23-.34-.41-.6-.54-.25-.13-.54-.19-.86-.19s-.62.07-.87.2c-.25.14-.44.33-.58.58s-.2.55-.2.9h-2.19c0-.71.16-1.33.48-1.86.32-.53.78-.93,1.36-1.22.58-.29,1.25-.43,2.01-.43s1.46.14,2.04.41c.58.27,1.03.65,1.36,1.14.32.49.48,1.04.48,1.67,0,.41-.08.82-.24,1.22-.16.4-.44.85-.86,1.34-.41.49-.99,1.07-1.74,1.75l-1.59,1.56v.07h4.58v1.89h-7.78ZM167.84,242.94c.56,0,1.1.09,1.62.28.52.19.99.49,1.4.9.41.41.74.96.97,1.64.24.68.36,1.51.37,2.5,0,.93-.11,1.75-.32,2.48-.21.73-.5,1.34-.89,1.85-.39.51-.85.9-1.4,1.16-.55.26-1.16.39-1.83.39-.73,0-1.37-.14-1.93-.42-.56-.28-1.01-.67-1.35-1.16-.34-.49-.54-1.04-.61-1.65h2.27c.09.4.28.71.56.93.28.22.64.32,1.06.32.71,0,1.25-.31,1.62-.93.37-.62.56-1.47.56-2.55h-.07c-.16.32-.38.59-.66.82-.28.23-.6.4-.95.53-.35.12-.73.19-1.13.19-.64,0-1.22-.15-1.72-.45-.51-.3-.9-.72-1.19-1.25-.29-.53-.44-1.13-.44-1.81,0-.73.17-1.38.51-1.96.34-.57.82-1.02,1.43-1.34.62-.33,1.33-.49,2.14-.48ZM167.86,244.75c-.36,0-.68.08-.96.26-.28.17-.5.4-.66.69-.16.29-.24.61-.23.96,0,.36.08.68.23.97.16.28.38.51.65.68.28.17.59.25.95.25.27,0,.51-.05.74-.15.23-.1.42-.24.59-.41.17-.18.3-.38.4-.61.1-.23.14-.48.14-.74,0-.34-.08-.66-.24-.95-.16-.29-.38-.52-.66-.69-.28-.17-.6-.26-.95-.26ZM175.15,252.73c-.35,0-.65-.12-.9-.37-.25-.25-.37-.55-.37-.9s.12-.65.37-.89c.25-.25.55-.37.9-.37s.64.12.9.37c.26.25.38.55.38.89,0,.23-.06.45-.18.64-.12.19-.27.35-.46.46-.19.11-.4.17-.63.17ZM175.15,247.38c-.35,0-.65-.12-.9-.37-.25-.25-.37-.55-.37-.91s.12-.64.37-.89c.25-.25.55-.37.9-.37s.64.12.9.37c.26.24.38.54.38.89,0,.24-.06.45-.18.65-.12.19-.27.35-.46.46-.19.11-.4.17-.63.17ZM182.3,254.15c-.8,0-1.5-.14-2.12-.41-.62-.28-1.11-.66-1.46-1.14-.35-.49-.54-1.05-.55-1.68h2.32c.01.27.1.5.26.7.16.2.38.35.65.46.27.11.57.17.91.17s.66-.06.93-.19c.27-.12.48-.3.63-.52.15-.22.23-.47.23-.76s-.08-.55-.24-.77c-.16-.23-.39-.4-.69-.53-.3-.13-.65-.19-1.07-.19h-1.02v-1.69h1.02c.35,0,.66-.06.92-.18.27-.12.48-.29.63-.5.15-.22.22-.47.22-.76s-.07-.51-.2-.72c-.13-.21-.31-.37-.54-.49-.23-.12-.5-.18-.81-.18s-.6.06-.86.17c-.26.11-.47.27-.62.47-.16.21-.24.45-.25.73h-2.21c.01-.63.19-1.18.54-1.66.35-.48.82-.85,1.41-1.12.59-.27,1.26-.41,2.01-.41s1.41.14,1.98.41c.56.27,1,.64,1.32,1.11.32.46.47.98.47,1.55,0,.61-.19,1.12-.57,1.53-.38.41-.88.67-1.49.78v.08c.8.1,1.41.38,1.83.84.42.45.63,1.02.63,1.69,0,.62-.18,1.17-.54,1.66-.36.48-.85.86-1.49,1.14-.63.28-1.36.42-2.17.42ZM187.99,252.08v-1.82l4.55-7.18h1.57v2.51h-.93l-2.87,4.54v.08h6.47v1.85h-8.79ZM193.23,254v-2.47l.04-.8v-7.63h2.16v10.91h-2.21Z"/>
    <rect class="cls-8" x="6.5" y="6.5" width="322" height="193" rx="7.5" ry="7.5"/>
    <rect class="cls-1" x="120" y="78.07" width="28.74" height="48.32"/>
    <path class="cls-1" d="M139.16,78.07l28.74-19.07v88.37l-28.74-20.98v-48.32Z"/>
    <path class="cls-5" d="M176,79h0c13.64,13.02,13.56,34.9,0,48h0"/>
    <path class="cls-6" d="M183,73h0c17.42,16.51,17.32,44.39,0,61h0"/>
    <path class="cls-7" d="M191,68h0c20.09,18.9,19.98,50.99,0,70h0"/>
  </g>
</svg>