<?xml version="1.0" encoding="UTF-8"?>
<svg id="Layer_2" data-name="Layer 2" xmlns="http://www.w3.org/2000/svg" viewBox="0 0 203 246">
  <defs>
    <style>
      .cls-1 {
        fill: #f2e3d4;
        stroke-width: 0px;
      }
    </style>
  </defs>
  <g id="Layer_1-2" data-name="Layer 1">
    <path class="cls-1" d="M102.5,0h0c8.56,0,15.5,6.94,15.5,15.5v215c0,8.56-6.94,15.5-15.5,15.5h0c-8.56,0-15.5-6.94-15.5-15.5V15.5c0-8.56,6.94-15.5,15.5-15.5Z"/>
    <path class="cls-1" d="M145.5,54h0c8.56,0,15.5,6.94,15.5,15.5v107c0,8.56-6.94,15.5-15.5,15.5h0c-8.56,0-15.5-6.94-15.5-15.5v-107c0-8.56,6.94-15.5,15.5-15.5Z"/>
    <path class="cls-1" d="M187.5,88h0c8.56,0,15.5,6.94,15.5,15.5v38c0,8.56-6.94,15.5-15.5,15.5h0c-8.56,0-15.5-6.94-15.5-15.5v-38c0-8.56,6.94-15.5,15.5-15.5Z"/>
    <path class="cls-1" d="M59.5,54h0c8.56,0,15.5,6.94,15.5,15.5v107c0,8.56-6.94,15.5-15.5,15.5h0c-8.56,0-15.5-6.94-15.5-15.5v-107c0-8.56,6.94-15.5,15.5-15.5Z"/>
    <path class="cls-1" d="M15.5,88h0c8.56,0,15.5,6.94,15.5,15.5v38c0,8.56-6.94,15.5-15.5,15.5h0c-8.56,0-15.5-6.94-15.5-15.5v-38c0-8.56,6.94-15.5,15.5-15.5Z"/>
  </g>
</svg>