<?xml version="1.0" encoding="UTF-8"?>
<svg id="Layer_2" data-name="Layer 2" xmlns="http://www.w3.org/2000/svg" xmlns:xlink="http://www.w3.org/1999/xlink" viewBox="0 0 357 64">
  <defs>
    <style>
      .cls-1 {
        fill: #f3f3f3;
      }

      .cls-1, .cls-2, .cls-3 {
        stroke-width: 0px;
      }

      .cls-2 {
        fill: url(#linear-gradient);
        fill-opacity: .2;
      }

      .cls-3 {
        fill: #4f4f4f;
      }

      .cls-4 {
        fill: none;
        stroke: #e2e2e2;
      }
    </style>
    <linearGradient id="linear-gradient" x1="234.5" y1="-581.13" x2="234.5" y2="-645.13" gradientTransform="translate(-56 -581.13) scale(1 -1)" gradientUnits="userSpaceOnUse">
      <stop offset="0" stop-color="#fff"/>
      <stop offset=".89" stop-color="#363636" stop-opacity="0"/>
    </linearGradient>
  </defs>
  <g id="Layer_1-2" data-name="Layer 1">
    <g>
      <rect class="cls-1" x=".5" y=".5" width="356" height="63" rx="14.5" ry="14.5"/>
      <rect class="cls-2" x=".5" y=".5" width="356" height="63" rx="14.5" ry="14.5"/>
      <rect class="cls-4" x=".5" y=".5" width="356" height="63" rx="14.5" ry="14.5"/>
      <path class="cls-3" d="M82.66,26.91c-.1-.86-.52-1.53-1.24-2.01-.73-.48-1.62-.72-2.68-.72-.77,0-1.45.12-2.03.38-.57.25-1.02.59-1.35,1.03-.32.44-.48.93-.48,1.49,0,.46.11.87.33,1.2.23.33.52.6.87.83.35.22.72.4,1.11.54.39.14.74.25,1.07.33l1.77.48c.45.12.96.28,1.52.49.56.21,1.1.5,1.61.86.52.36.94.82,1.28,1.38.34.56.5,1.25.5,2.07,0,.94-.25,1.8-.74,2.56-.49.76-1.2,1.37-2.15,1.82-.94.45-2.08.67-3.42.67-1.25,0-2.33-.2-3.25-.61-.91-.4-1.62-.97-2.15-1.69-.52-.72-.81-1.56-.88-2.51h2.18c.06.66.28,1.21.66,1.64.39.43.89.74,1.48.96.6.2,1.25.31,1.94.31.81,0,1.53-.13,2.17-.39.64-.27,1.15-.64,1.53-1.11.38-.48.56-1.03.56-1.67,0-.58-.16-1.05-.49-1.42-.32-.36-.75-.66-1.28-.89-.53-.23-1.1-.43-1.71-.6l-2.15-.61c-1.36-.39-2.44-.95-3.24-1.68-.8-.73-1.19-1.68-1.19-2.85,0-.98.26-1.83.79-2.56.53-.73,1.25-1.3,2.15-1.71.9-.41,1.91-.61,3.03-.61s2.12.2,3,.6c.88.4,1.57.94,2.08,1.64.52.69.79,1.48.82,2.36h-2.05ZM88.15,44.91v-18h1.94v2.08h.24c.15-.23.35-.52.61-.87.27-.36.65-.68,1.14-.95.5-.28,1.18-.43,2.03-.43,1.1,0,2.07.28,2.91.83.84.55,1.5,1.33,1.97,2.34s.71,2.21.71,3.58-.24,2.59-.71,3.6c-.47,1.01-1.12,1.8-1.96,2.35-.84.55-1.8.83-2.89.83-.84,0-1.51-.14-2.02-.42-.51-.28-.89-.6-1.17-.96-.27-.36-.48-.66-.63-.9h-.17v6.92h-2.01ZM90.12,33.46c0,.99.14,1.86.43,2.62.29.75.71,1.34,1.27,1.76.56.42,1.24.63,2.05.63s1.54-.22,2.11-.67c.57-.45.99-1.05,1.28-1.81.29-.76.44-1.61.44-2.54s-.14-1.75-.43-2.49c-.28-.74-.7-1.33-1.27-1.76-.56-.44-1.27-.66-2.12-.66s-1.51.21-2.06.62c-.56.41-.98.98-1.26,1.72-.28.73-.43,1.59-.43,2.57ZM106.62,40.31c-.83,0-1.58-.16-2.26-.47-.68-.32-1.21-.78-1.61-1.37-.4-.6-.6-1.33-.6-2.18,0-.75.15-1.36.44-1.82.3-.47.69-.84,1.19-1.11.49-.27,1.04-.47,1.64-.6.6-.14,1.21-.24,1.82-.32.79-.1,1.44-.18,1.93-.23.5-.06.86-.15,1.09-.28.23-.13.35-.36.35-.68v-.07c0-.84-.23-1.49-.69-1.96-.45-.47-1.14-.7-2.07-.7s-1.71.21-2.26.63c-.55.42-.93.87-1.15,1.35l-1.91-.68c.34-.8.8-1.42,1.36-1.86.57-.45,1.2-.76,1.88-.94.68-.18,1.35-.27,2.01-.27.42,0,.9.05,1.45.15.55.1,1.08.3,1.59.6.52.31.95.77,1.29,1.39.34.62.51,1.45.51,2.49v8.62h-2.01v-1.77h-.1c-.14.28-.36.59-.68.91-.32.32-.74.6-1.27.83-.53.23-1.17.34-1.93.34ZM106.93,38.5c.79,0,1.47-.16,2.01-.47.55-.31.97-.72,1.24-1.21.28-.49.43-1.01.43-1.56v-1.84c-.09.1-.27.2-.56.28-.28.08-.61.15-.99.21-.37.06-.73.11-1.08.15-.35.04-.63.07-.84.1-.52.07-1.01.18-1.47.33-.45.15-.81.37-1.09.67-.27.3-.41.7-.41,1.21,0,.7.26,1.23.78,1.59.52.35,1.18.53,1.99.53ZM116.29,40v-13.09h2.01v13.09h-2.01ZM117.32,24.73c-.39,0-.73-.13-1.01-.4-.28-.27-.42-.59-.42-.96s.14-.7.42-.96c.28-.27.62-.4,1.01-.4s.73.13,1,.4c.29.27.43.59.43.96s-.14.7-.43.96c-.28.27-.61.4-1,.4ZM124,32.12v7.88h-2.01v-13.09h1.94v2.05h.17c.31-.67.77-1.2,1.4-1.6.62-.41,1.43-.61,2.42-.61.89,0,1.66.18,2.33.54.66.36,1.18.9,1.55,1.64.37.73.55,1.65.55,2.76v8.32h-2.01v-8.18c0-1.03-.27-1.83-.8-2.4-.53-.58-1.27-.87-2.2-.87-.64,0-1.22.14-1.72.42-.5.28-.89.68-1.18,1.22-.29.53-.43,1.18-.43,1.94ZM143.77,22.54l5.18,14.69h.2l5.18-14.69h2.22l-6.41,17.46h-2.18l-6.41-17.46h2.22ZM161.63,40.31c-.83,0-1.58-.16-2.26-.47-.68-.32-1.21-.78-1.61-1.37-.4-.6-.6-1.33-.6-2.18,0-.75.15-1.36.44-1.82.29-.47.69-.84,1.18-1.11.49-.27,1.04-.47,1.64-.6.6-.14,1.21-.24,1.82-.32.8-.1,1.44-.18,1.93-.23.5-.06.86-.15,1.09-.28.23-.13.35-.36.35-.68v-.07c0-.84-.23-1.49-.69-1.96-.46-.47-1.15-.7-2.07-.7s-1.71.21-2.26.63c-.54.42-.93.87-1.15,1.35l-1.91-.68c.34-.8.8-1.42,1.36-1.86.57-.45,1.2-.76,1.88-.94.68-.18,1.35-.27,2.01-.27.42,0,.9.05,1.45.15.55.1,1.08.3,1.59.6.52.31.95.77,1.29,1.39.34.62.51,1.45.51,2.49v8.62h-2.01v-1.77h-.1c-.14.28-.36.59-.68.91-.32.32-.74.6-1.27.83-.53.23-1.17.34-1.93.34ZM161.94,38.5c.79,0,1.46-.16,2.01-.47.55-.31.97-.72,1.24-1.21.28-.49.43-1.01.43-1.56v-1.84c-.09.1-.27.2-.56.28-.28.08-.61.15-.99.21-.37.06-.73.11-1.08.15-.35.04-.63.07-.84.1-.52.07-1.01.18-1.47.33-.45.15-.81.37-1.09.67-.27.3-.41.7-.41,1.21,0,.7.26,1.23.78,1.59.52.35,1.18.53,1.99.53ZM176.62,40.27c-1.23,0-2.28-.29-3.17-.87-.89-.58-1.57-1.38-2.05-2.39-.48-1.02-.72-2.18-.72-3.49s.24-2.5.73-3.52c.49-1.02,1.18-1.82,2.06-2.4.89-.58,1.92-.87,3.1-.87.92,0,1.75.17,2.49.51.74.34,1.34.82,1.82,1.43.47.61.76,1.33.88,2.15h-2.01c-.15-.6-.49-1.12-1.02-1.59-.52-.47-1.23-.7-2.11-.7-.78,0-1.47.21-2.06.61-.59.4-1.04.98-1.37,1.71-.32.73-.49,1.59-.49,2.58s.16,1.89.48,2.64c.32.75.78,1.33,1.36,1.75.59.42,1.29.62,2.08.62.52,0,1-.09,1.42-.27.43-.18.79-.44,1.08-.78.29-.34.5-.75.63-1.23h2.01c-.11.77-.4,1.47-.84,2.09-.44.61-1.03,1.1-1.76,1.47-.73.36-1.57.54-2.54.54ZM188.56,40.31c-.83,0-1.58-.16-2.26-.47-.68-.32-1.21-.78-1.61-1.37-.4-.6-.6-1.33-.6-2.18,0-.75.15-1.36.44-1.82.29-.47.69-.84,1.18-1.11.49-.27,1.04-.47,1.64-.6.6-.14,1.21-.24,1.82-.32.79-.1,1.44-.18,1.93-.23.5-.06.86-.15,1.09-.28.23-.13.35-.36.35-.68v-.07c0-.84-.23-1.49-.69-1.96-.45-.47-1.14-.7-2.07-.7s-1.71.21-2.26.63c-.55.42-.93.87-1.15,1.35l-1.91-.68c.34-.8.8-1.42,1.36-1.86.57-.45,1.2-.76,1.88-.94.68-.18,1.35-.27,2.01-.27.42,0,.9.05,1.45.15.55.1,1.08.3,1.59.6.52.31.95.77,1.29,1.39.34.62.51,1.45.51,2.49v8.62h-2.01v-1.77h-.1c-.14.28-.36.59-.68.91-.32.32-.74.6-1.27.83-.53.23-1.17.34-1.93.34ZM188.87,38.5c.8,0,1.47-.16,2.01-.47.55-.31.96-.72,1.24-1.21.28-.49.43-1.01.43-1.56v-1.84c-.08.1-.27.2-.56.28-.29.08-.61.15-.99.21-.37.06-.73.11-1.08.15-.35.04-.63.07-.84.1-.52.07-1.01.18-1.47.33-.45.15-.81.37-1.09.67-.27.3-.41.7-.41,1.21,0,.7.26,1.23.77,1.59.52.35,1.18.53,1.99.53ZM203.93,26.91v1.71h-6.78v-1.71h6.78ZM199.12,23.77h2.01v12.48c0,.57.08.99.25,1.28.17.28.39.47.65.56.27.09.55.14.84.14.22,0,.4-.01.54-.03.14-.03.26-.05.34-.07l.41,1.81c-.14.05-.33.1-.57.15-.24.06-.55.08-.93.08-.57,0-1.12-.12-1.67-.37-.54-.24-.99-.62-1.35-1.12-.35-.5-.53-1.13-.53-1.89v-13.02ZM206.95,40v-13.09h2.01v13.09h-2.01ZM207.97,24.73c-.39,0-.73-.13-1.01-.4-.28-.27-.42-.59-.42-.96s.14-.7.42-.96c.28-.27.62-.4,1.01-.4s.73.13,1.01.4c.28.27.43.59.43.96s-.14.7-.43.96c-.28.27-.61.4-1.01.4ZM217.96,40.27c-1.18,0-2.22-.28-3.11-.84-.89-.56-1.58-1.35-2.08-2.36-.49-1.01-.74-2.19-.74-3.54s.25-2.55.74-3.57c.5-1.02,1.19-1.81,2.08-2.37.89-.56,1.93-.84,3.11-.84s2.22.28,3.1.84c.89.56,1.59,1.35,2.08,2.37.5,1.02.75,2.21.75,3.57s-.25,2.53-.75,3.54c-.49,1.01-1.19,1.8-2.08,2.36-.89.56-1.92.84-3.1.84ZM217.96,38.47c.9,0,1.64-.23,2.22-.69.58-.46,1.01-1.07,1.29-1.82.28-.75.42-1.56.42-2.44s-.14-1.69-.42-2.45c-.28-.76-.71-1.37-1.29-1.83-.58-.47-1.32-.7-2.22-.7s-1.64.23-2.22.7c-.58.47-1.01,1.08-1.29,1.83-.28.76-.42,1.57-.42,2.45s.14,1.69.42,2.44.71,1.35,1.29,1.82c.58.46,1.32.69,2.22.69ZM228.98,32.12v7.88h-2.01v-13.09h1.94v2.05h.17c.31-.67.77-1.2,1.4-1.6.62-.41,1.43-.61,2.42-.61.89,0,1.66.18,2.33.54.67.36,1.18.9,1.55,1.64.37.73.55,1.65.55,2.76v8.32h-2.01v-8.18c0-1.03-.27-1.83-.8-2.4-.53-.58-1.27-.87-2.2-.87-.64,0-1.22.14-1.72.42-.5.28-.9.68-1.18,1.22-.29.53-.43,1.18-.43,1.94ZM248.03,40v-17.46h5.9c1.37,0,2.49.25,3.36.74.88.49,1.52,1.15,1.94,1.99.42.84.63,1.77.63,2.79s-.21,1.96-.63,2.8c-.41.84-1.06,1.51-1.93,2.01-.87.49-1.98.74-3.34.74h-4.23v-1.88h4.16c.94,0,1.69-.16,2.26-.49.57-.32.98-.76,1.24-1.31.26-.56.39-1.18.39-1.88s-.13-1.32-.39-1.88c-.26-.55-.67-.98-1.24-1.29-.57-.32-1.33-.48-2.28-.48h-3.72v15.58h-2.11ZM265,22.54v17.46h-2.01v-17.46h2.01ZM272.54,40.31c-.83,0-1.58-.16-2.26-.47-.68-.32-1.21-.78-1.61-1.37-.4-.6-.6-1.33-.6-2.18,0-.75.15-1.36.44-1.82.3-.47.69-.84,1.18-1.11.49-.27,1.04-.47,1.64-.6.6-.14,1.21-.24,1.82-.32.8-.1,1.44-.18,1.93-.23.5-.06.86-.15,1.09-.28.23-.13.35-.36.35-.68v-.07c0-.84-.23-1.49-.69-1.96-.45-.47-1.14-.7-2.07-.7s-1.71.21-2.26.63c-.55.42-.93.87-1.15,1.35l-1.91-.68c.34-.8.79-1.42,1.36-1.86.57-.45,1.2-.76,1.88-.94.68-.18,1.35-.27,2.01-.27.42,0,.9.05,1.45.15.55.1,1.08.3,1.59.6.52.31.95.77,1.29,1.39.34.62.51,1.45.51,2.49v8.62h-2.01v-1.77h-.1c-.14.28-.36.59-.68.91-.32.32-.74.6-1.27.83-.53.23-1.17.34-1.93.34ZM272.84,38.5c.8,0,1.47-.16,2.01-.47.55-.31.97-.72,1.24-1.21.29-.49.43-1.01.43-1.56v-1.84c-.09.1-.27.2-.56.28-.28.08-.61.15-.99.21-.37.06-.73.11-1.08.15-.35.04-.63.07-.84.1-.52.07-1.01.18-1.47.33-.45.15-.81.37-1.09.67-.27.3-.41.7-.41,1.21,0,.7.26,1.23.78,1.59.52.35,1.18.53,1.99.53ZM284.22,32.12v7.88h-2.01v-13.09h1.94v2.05h.17c.31-.67.77-1.2,1.4-1.6.62-.41,1.43-.61,2.42-.61.89,0,1.66.18,2.33.54.66.36,1.18.9,1.55,1.64.37.73.55,1.65.55,2.76v8.32h-2.01v-8.18c0-1.03-.27-1.83-.8-2.4-.53-.58-1.27-.87-2.2-.87-.64,0-1.22.14-1.72.42-.5.28-.89.68-1.18,1.22-.29.53-.43,1.18-.43,1.94Z"/>
    </g>
  </g>
</svg>